/* XPM */
static char *ce75fd666e074cf9a54a73264285ac2d[] = {
/* columns rows colors chars-per-pixel */
"32 32 221 2 ",
"   c black",
".  c #010101",
"X  c #000202",
"o  c #020202",
"O  c #020303",
"+  c gray1",
"@  c #030404",
"#  c #010606",
"$  c #040505",
"%  c #040606",
"&  c #050707",
"*  c #060707",
"=  c #010B0B",
"-  c #070A0A",
";  c #080A0A",
":  c #090B0B",
">  c #090C0C",
",  c #0C100F",
"<  c #0D1111",
"1  c #0E1212",
"2  c #0F1414",
"3  c #031918",
"4  c #041B1B",
"5  c #041D1C",
"6  c #101515",
"7  c #121817",
"8  c #121818",
"9  c #131919",
"0  c #141A1A",
"q  c #161D1D",
"w  c #171E1E",
"e  c #052424",
"r  c #1C2525",
"t  c #073534",
"y  c #212C2C",
"u  c #232F2F",
"i  c #263332",
"p  c #283636",
"a  c #2A3737",
"s  c #094443",
"d  c #0A4D4C",
"f  c #314140",
"g  c #314141",
"h  c #324342",
"j  c #344444",
"k  c #364847",
"l  c #3C4F4F",
"z  c #3E5251",
"x  c #0E6B6A",
"c  c #0F716F",
"v  c #0F7271",
"b  c #0F7573",
"n  c #0F7674",
"m  c #425858",
"M  c #455B5B",
"N  c #48605F",
"B  c #4B6362",
"V  c #4E6868",
"C  c #4F6968",
"Z  c #4F6A69",
"A  c #567272",
"S  c #567372",
"D  c #5E7D7D",
"F  c #11817F",
"G  c #13807F",
"H  c #118483",
"J  c #128A89",
"K  c #128B89",
"L  c #128B8A",
"P  c #128D8B",
"I  c #148C8A",
"U  c #178D8B",
"Y  c #128E8C",
"T  c #138F8D",
"R  c #1C8C8B",
"E  c #188E8D",
"W  c #13908E",
"Q  c #13918F",
"!  c #139290",
"~  c #139291",
"^  c #139391",
"/  c #139392",
"(  c #179391",
")  c #139593",
"_  c #149795",
"`  c #1F9493",
"'  c #149896",
"]  c #149897",
"[  c #149997",
"{  c #159997",
"}  c #149A98",
"|  c #149B99",
" . c #149C9A",
".. c #149D9B",
"X. c #159D9B",
"o. c #149E9C",
"O. c #159E9C",
"+. c #159F9D",
"@. c #1C9C9A",
"#. c #1F9D9B",
"$. c #25908E",
"%. c #2B908E",
"&. c #259291",
"*. c #239593",
"=. c #209E9C",
"-. c #249E9C",
";. c #319290",
":. c #399391",
">. c #3E9695",
",. c #15A09E",
"<. c #15A19F",
"1. c #459493",
"2. c #439796",
"3. c #4B9695",
"4. c #529896",
"5. c #579898",
"6. c #618181",
"7. c #648585",
"8. c #678A89",
"9. c #698C8B",
"0. c #6C8F8F",
"q. c #6D908F",
"w. c #6E9291",
"e. c #639E9D",
"r. c #659D9C",
"t. c #719696",
"y. c #729797",
"u. c #739A99",
"i. c #719A9A",
"p. c #749A99",
"a. c #759B9B",
"s. c #769D9C",
"d. c #789E9E",
"f. c #42A6A5",
"g. c #4CA2A0",
"h. c #57B5B3",
"j. c #55B6B4",
"k. c #58B9B7",
"l. c #5BBBBA",
"z. c #6BADAC",
"x. c #72A7A6",
"c. c #78A0A0",
"v. c #7AA2A1",
"b. c #7BA3A2",
"n. c #7BA4A3",
"m. c #7CA4A3",
"M. c #7CA5A4",
"N. c #7DA6A5",
"B. c #7FA8A8",
"V. c #7FA9A9",
"C. c #64BFBE",
"Z. c #6EBCBB",
"A. c #69C3C1",
"S. c #77CAC9",
"D. c #7DCDCC",
"F. c #81ABAA",
"G. c #82ACAB",
"H. c #82ADAC",
"J. c #83AEAD",
"K. c #83AFAE",
"L. c #84AFAE",
"P. c #84AFAF",
"I. c #84B0AF",
"U. c #85B1B0",
"Y. c #86B2B1",
"T. c #88B5B4",
"R. c #8AB7B7",
"E. c #8BB8B7",
"W. c #88BABA",
"Q. c #8CBAB9",
"!. c #8DBCBB",
"~. c #8EBCBC",
"^. c #90BEBE",
"/. c #90BFBE",
"(. c #90BFBF",
"). c #91C0BF",
"_. c #8CC5C4",
"`. c #93C3C2",
"'. c #93C4C3",
"]. c #91C5C4",
"[. c #95C5C5",
"{. c #95C6C6",
"}. c #97C8C7",
"|. c #97C9C8",
" X c #98CAC9",
".X c #9ACCCB",
"XX c #9ACDCC",
"oX c #9CCFCE",
"OX c #9CCFCF",
"+X c #84D0CF",
"@X c #9DD0CF",
"#X c #9ED2D1",
"$X c #9FD3D2",
"%X c #9FDFDE",
"&X c #A0D4D3",
"*X c #A1D6D5",
"=X c #A2D7D6",
"-X c #A2D8D7",
";X c #A3D8D7",
":X c #A4D9D8",
">X c #A4DAD9",
",X c #A5DBDA",
"<X c #A6DCDB",
"1X c #A5DDDC",
"2X c #A6DDDC",
"3X c #A7DEDD",
"4X c #A8DFDE",
"5X c #A9E0DF",
"6X c #A4E1E0",
"7X c #A6E1E0",
"8X c #A9E1E0",
"9X c #AAE2E1",
"0X c #ABE2E1",
"qX c #ABE3E2",
"wX c #ACE4E3",
"eX c #AAE5E4",
"rX c #ACE5E4",
"tX c #ADE5E4",
"yX c #ADE6E5",
"uX c #AEE7E6",
"iX c None",
/* pixels */
"iXiXiXiXiXiXiXiXiXiXiXiXiXiXiXiXiXiXiXiXiXiXiXiXiXiXiXiXiXiXiXiX",
"iXiXiXiXiXiXiXiXiXiXiXiXiXiXiXiXiXiXiXiXiXiXiXiXiXiXiXiXiXiXiXiX",
"iXiXiXiXiXiXiXiXiXiXiXiXiXiXiXiXiXiXiXiXiXiXiXiXiXiXiXiXiXiXiXiX",
"iXiXiXiXiXiXiXiXiXiXiXiXiX. 1 q 6 # iXiXiXiXiXiXiXiXiXiXiXiXiXiX",
"iXiXiXiXiXiXiXiXiXiX& z 7.d.b.b.m.m.q.N 6 iXiXiXiXiXiXiXiXiXiXiX",
"iXiXiXiXiXiXiXiX# M i.4.:.;.2.x.H.G.H.G.B.S : iXiXiXiXiXiXiXiXiX",
"iXiXiXiXiXiXiX1 9.5.R J P Y Y E z.Q.Q.E.T.Y.b.r iXiXiXiXiXiXiXiX",
"iXiXiXiXiXiX2 t.1.J P Q ! ! ! Q ` ].}.{.`./.Q.H.y iXiXiXiXiXiXiX",
"iXiXiXiXiX& w.3.J s 4 e b _ _ ) ! Z.*X#X@XXX{.).Y.8 iXiXiXiXiXiX",
"iXiXiXiXiXV r.n 4 . . . = ! } ] ) h.<X2X:X*X#X.X].a.. iXiXiXiXiX",
"iXiXiXiX7 c.%.t . . . . . v ..| _ j.0X0X0X5X:X*XoX{.g iXiXiXiXiX",
"iXiXiXiXV e.F . . . . . . b +.| ] C.yXyXyXwX0X4X;XoXN.iXiXiXiXiX",
"iXiXiX. p.>.x . . . . . # _ +...] +XyXuXuXyXyX0X4X*XXX6 iXiXiXiX",
"iXiXiX8 N.$.v . . . . . d <.+.| #.eXuXuXuXuXyXyX0X<X*Xj iXiXiXiX",
"iXiXiXp B.I W 5 . . . t ..+.+.| l.uXuXuXuXuXuXyXwX5X:XS iXiXiXiX",
"iXiXiXj F.I W I d s c +.<...| =.6XuXuXuXuXuXuXyXyX0X<X7.iXiXiXiX",
"iXiXiXg J.&.Y ) ] ....+.+...| D.uXuXuXuXuXuXuXuXuXyX4X6.iXiXiXiX",
"iXiXiXy J.g.W ) _ ] ....| ] A.uXuXuXuXuXuXuXuXuXyXwX5XZ iXiXiXiX",
"iXiXiX> I.Q.*.Q ) _ | ] @.S.uXuXuXuXuXuXuXuXuXuXuXyX4Xp iXiXiXiX",
"iXiXiX. i.~._.f.( ^ =.k.1XyXuXuXuXuXuXuXuXuXuXuXuXyX:X* iXiXiXiX",
"iXiXiXiXz ~. X*X2X6XuXuXuXuXuXuXuXuXuXuXuXuXuXuXuX0Xt.iXiXiXiXiX",
"iXiXiXiX* I.{.$X<X0XyXuXuXuXuXuXuXuXuXuXuXuXuXuXyX0X0 iXiXiXiXiX",
"iXiXiXiXiXg `.oX:X5XyXuXuXuXuXuXuXuXuXuXuXuXuXuXyX6.iXiXiXiXiXiX",
"iXiXiXiXiXiXD  X*X4X0XyXuXuXuXuXuXuXuXuXuXuXuXyXT.+ iXiXiXiXiXiX",
"iXiXiXiXiXiX# 8.oX:X5X0XyXyXuXuXuXuXuXuXyXyXyX/.> iXiXiXiXiXiXiX",
"iXiXiXiXiXiXiX. B oX:X0X0XyXyXuXuXuXuXuXyXyXt.* iXiXiXiXiXiXiXiX",
"iXiXiXiXiXiXiXiXiXw p.:X0X0X0XyXyXyXyXwXT.i iXiXiXiXiXiXiXiXiXiX",
"iXiXiXiXiXiXiXiXiXiXiX, m w.Y.~.R.s.Z 0 iXiXiXiXiXiXiXiXiXiXiXiX",
"iXiXiXiXiXiXiXiXiXiXiXiXiXiXiXiXiXiXiXiXiXiXiXiXiXiXiXiXiXiXiXiX",
"iXiXiXiXiXiXiXiXiXiXiXiXiXiXiXiXiXiXiXiXiXiXiXiXiXiXiXiXiXiXiXiX",
"iXiXiXiXiXiXiXiXiXiXiXiXiXiXiXiXiXiXiXiXiXiXiXiXiXiXiXiXiXiXiXiX",
"iXiXiXiXiXiXiXiXiXiXiXiXiXiXiXiXiXiXiXiXiXiXiXiXiXiXiXiXiXiXiXiX"
};
